<svg xmlns="http://www.w3.org/2000/svg" width="557" height="408" fill="none"><g stroke-miterlimit="10" stroke-width="1.75" clip-path="url(#a)"><path stroke="#E8EAED" d="m2.014 412.392 184.19-150.668H427.5l184.197 150.668H2.014Z"/><path stroke="#E8EAED" d="m124.473 412.392 110.199-150.668h144.371l110.199 150.668H124.473Z"/><path stroke="#E8EAED" d="m241.451 412.392 39.517-150.668h51.775l39.517 150.668H241.451ZM135.475 303.223h342.762M68.54 357.973h476.633M611.697-4.96 427.5 145.71H186.204L2.014-4.959h609.683Z"/><path stroke="#E8EAED" d="M489.242-4.96 379.043 145.71H234.672L124.473-4.959h364.769Z"/><path stroke="#E8EAED" d="M372.26-4.96 332.743 145.71h-51.775L241.451-4.959H372.26ZM478.237 104.21H135.475M545.173 49.46H68.539"/><path fill="#FFBB01" stroke="#202124" d="m381.944 203.435-46.557 26.885c-10.953 6.327-14.714 20.342-8.387 31.309 6.326 10.968 20.327 14.715 31.295 8.388l80.446-46.471-56.797-20.119v.008Z"/><path fill="#38A852" stroke="#202124" d="M346.866 134.323c-7.912 0-15.615 4.115-19.859 11.472-6.327 10.967-2.58 24.983 8.387 31.31l80.447 46.47c10.967 6.327 24.968 2.58 31.295-8.387 6.327-10.968 2.58-24.983-8.388-31.31l-80.446-46.471a22.8 22.8 0 0 0-11.436-3.084Z"/><path fill="#FF5145" stroke="#202124" d="M266.83 134.323c-3.892 0-7.826.995-11.436 3.084l-80.447 46.471 56.077 20.544 47.277-27.317c10.953-6.327 14.715-20.343 8.388-31.31-4.237-7.35-11.94-11.472-19.859-11.472Z"/><path fill="#428EFF" stroke="#202124" d="M186.427 180.787c-7.913 0-15.616 4.1-19.86 11.471-6.327 10.968-2.58 24.983 8.388 31.31l80.446 46.471c10.953 6.327 24.969 2.58 31.296-8.388 6.326-10.967 2.579-24.983-8.388-31.309l-80.461-46.471a22.677 22.677 0 0 0-11.421-3.084Z"/></g><defs><clipPath id="a"><path fill="#fff" d="M.5-5.5h612.71v418.432H.5z"/></clipPath></defs></svg>